<svg width="482" height="479" viewBox="0 0 482 479" fill="none" xmlns="http://www.w3.org/2000/svg">
<path fill-rule="evenodd" clip-rule="evenodd" d="M206.951 479C89.9642 462.612 0 362.143 0 240.67C0 212.51 4.81592 185.553 13.712 160.469L38.3936 201.205C35.9188 213.981 34.581 227.226 34.581 240.737C34.581 334.25 96.8536 413.18 182.269 438.398L206.951 479.067V479Z" fill="#4C545E"/>
<path fill-rule="evenodd" clip-rule="evenodd" d="M467.613 160.469C476.509 185.553 481.325 212.577 481.325 240.67C481.325 362.143 391.361 462.545 274.374 479L299.056 438.331C384.405 413.113 446.744 334.183 446.744 240.67C446.744 227.159 445.406 213.981 442.931 201.138L467.613 160.402V160.469Z" fill="#4C545E"/>
<path fill-rule="evenodd" clip-rule="evenodd" d="M240.663 0C307.684 0 368.285 27.4249 411.895 71.5724H358.452C325.075 48.2946 284.474 34.5822 240.663 34.5822C196.851 34.5822 156.25 48.2278 122.873 71.5724H69.4297C113.041 27.4249 173.641 0 240.663 0Z" fill="#4C545E"/>
<path fill-rule="evenodd" clip-rule="evenodd" d="M334.64 99.3987H382.665L352.499 148.83H379.522L409.688 99.3987H466.676L320.527 340.471L291.631 292.845L349.355 198.262H322.333L278.12 270.704L254.174 231.239L334.64 99.3987Z" fill="#4C545E"/>
<path fill-rule="evenodd" clip-rule="evenodd" d="M123.274 148.83L166.952 220.67H139.929L96.2516 148.83H123.274ZM14.6484 99.3987H146.953L307.082 362.745L280.26 407.026L196.985 270.102H169.962L266.749 429.301L240.662 472.378L14.6484 99.3987Z" fill="#4C545E"/>
<path d="M174.644 99.3987L241.197 209.165L307.684 99.3987H174.644Z" fill="url(#paint0_linear_1_224085)"/>
<defs>
<linearGradient id="paint0_linear_1_224085" x1="295" y1="133" x2="215.5" y2="80.5" gradientUnits="userSpaceOnUse">
<stop stop-color="#F58220"/>
<stop offset="1" stop-color="#FFCB05"/>
</linearGradient>
</defs>
</svg>
